Coordinates
version=1
nRows=12
nColumns=24
inDegrees=yes

Units are S.I. units (second, meters, Newtons, ...)
Angles are in degrees.

endheader
time	pelvis_tilt	pelvis_list	pelvis_rotation	pelvis_tx	pelvis_ty	pelvis_tz	hip_flexion_r	hip_adduction_r	hip_rotation_r	knee_angle_r	ankle_angle_r	subtalar_angle_r	mtp_angle_r	hip_flexion_l	hip_adduction_l	hip_rotation_l	knee_angle_l	ankle_angle_l	subtalar_angle_l	mtp_angle_l	lumbar_extension	lumbar_bending	lumbar_rotation
      1.39000000	     24.67696338	     -1.54619638	      4.42605524	     -0.44333009	      0.84343840	     -0.02190109	    -43.65966441	      7.98987851	    -18.35655389	     -4.35388689	     29.34220019	     18.20149287	     31.48469094	     -6.82651775	      1.30288839	    -14.05635561	     -0.64962216	     17.41858784	     14.26575749	     47.87635146	    -38.29899630	      4.79771597	     -9.35787658
      1.39500000	     24.76362648	     -1.67669235	      4.31761809	     -0.43698808	      0.84312388	     -0.02166112	    -43.78023589	      7.86693679	    -18.08822077	     -5.44276667	     29.42824544	     18.40631117	     31.62710433	     -6.90700359	      1.17784287	    -14.09104619	     -1.40300335	     17.17134969	     14.06563112	     47.87787587	    -38.34801913	      4.77414410	     -9.35196112
      1.40000000	     24.84344256	     -1.77048688	      4.27660052	     -0.43067002	      0.84282664	     -0.02156773	    -43.82503939	      7.73234480	    -18.05178393	     -6.68784978	     29.46561471	     18.79596031	     32.25625986	     -6.95606383	      1.07710357	    -13.93626878	     -2.26097920	     16.83560159	     13.60164772	     47.98069884	    -38.39268424	      4.75826998	     -9.42014406
      1.40500000	     24.95790638	     -1.85334895	      4.18836208	     -0.42435606	      0.84265683	     -0.02137250	    -43.88745644	      7.55945361	    -17.88578751	     -7.96039907	     29.43335195	     18.98535113	     33.54178801	     -7.05003368	      0.97996330	    -13.79919489	     -3.15600204	     16.38725723	     12.92347032	     48.30366455	    -38.47959454	      4.69792571	     -9.45415715
      1.41000000	     24.98428707	     -1.96703613	      4.12569123	     -0.41805134	      0.84246244	     -0.02121049	    -43.76912718	      7.40675860	    -17.75755919	     -9.42809290	     29.37184547	     19.19789238	     34.15843704	     -6.99067167	      0.82515119	    -13.66198654	     -4.20770295	     15.97318972	     12.42149845	     48.44724389	    -38.47389169	      4.67710886	     -9.47886017
      1.41500000	     25.04376361	     -2.05489751	      4.06059950	     -0.41180067	      0.84236206	     -0.02108412	    -43.63696306	      7.21798653	    -17.66450769	    -10.99471678	     29.36280215	     19.43933910	     34.89505833	     -6.96442097	      0.69226969	    -13.43474507	     -5.29348873	     15.45211246	     11.68081481	     48.56453829	    -38.51278661	      4.63670309	     -9.51974272
      1.42000000	     25.15271831	     -2.10390589	      3.94428978	     -0.40547192	      0.84243506	     -0.02090616	    -43.51326908	      6.95631431	    -17.57939413	    -12.65348169	     28.99251001	     19.43928225	     37.39370499	     -7.05973168	      0.60851095	    -13.24012881	     -6.26247657	     14.82848217	     10.80232484	     49.24760224	    -38.60189261	      4.53001311	     -9.52653012
      1.42500000	     25.16251873	     -2.16849928	      3.90508626	     -0.39922895	      0.84239593	     -0.02081661	    -43.20027658	      6.74014197	    -17.56881852	    -14.49683600	     28.89842061	     19.59540514	     37.82868335	     -6.91520829	      0.46726224	    -12.99710031	     -7.55060390	     14.44561834	     10.12045428	     49.27484461	    -38.59250978	      4.47659526	     -9.59906273
      1.43000000	     25.19888750	     -2.17484698	      3.82800509	     -0.39289614	      0.84249768	     -0.02072387	    -42.87833595	      6.43861462	    -17.61197622	    -16.40366105	     28.41796857	     19.57705618	     40.38549116	     -6.89241701	      0.41156722	    -12.69868192	     -8.65586724	     13.90901321	      9.16810721	     49.64280733	    -38.60532097	      4.34951998	     -9.67203120
      1.43500000	     25.17826803	     -2.19110007	      3.80630015	     -0.38665287	      0.84253220	     -0.02074981	    -42.39865609	      6.15509219	    -17.72224973	    -18.52574903	     28.10595083	     19.60682297	     40.97524360	     -6.73695821	      0.32767841	    -12.33979598	     -9.93286987	     13.61864946	      8.35857125	     49.60256670	    -38.56758922	      4.27079134	     -9.78097890
      1.44000000	     25.21220155	     -2.13918354	      3.72659378	     -0.38035614	      0.84273888	     -0.02075482	    -41.93940422	      5.76364983	    -17.86850126	    -20.69581092	     27.52367869	     19.42121430	     43.51915628	     -6.75004748	      0.34633646	    -11.94539440	    -10.99583572	     13.19109794	      7.38374114	     49.50900558	    -38.58790969	      4.09996180	     -9.85413518
      1.44500000	     25.16246589	     -2.10488494	      3.69027082	     -0.37407119	      0.84286012	     -0.02079847	    -41.32470035	      5.40149377	    -18.02836417	    -22.97592765	     26.86445559	     19.17810725	     45.49737737	     -6.60841810	      0.32488634	    -11.57727917	    -12.22393809	     13.00864173	      6.68158805	     49.31223090	    -38.51961025	      3.96740549	     -9.96286960
